<mxfile host="app.diagrams.net" modified="2023-07-25T12:54:20.285Z" agent="Mozilla/5.0 (Windows NT 10.0; Win64; x64) AppleWebKit/537.36 (KHTML, like Gecko) Chrome/115.0.0.0 Safari/537.36" etag="UE1wcZ45G9UIttR6E6zY" version="21.6.5" type="github">
  <diagram name="Página-1" id="-KBPSxF1nXoSBBwAwEgY">
    <mxGraphModel dx="1050" dy="574" grid="1" gridSize="10" guides="1" tooltips="1" connect="1" arrows="1" fold="1" page="1" pageScale="1" pageWidth="827" pageHeight="1169" math="0" shadow="0">
      <root>
        <mxCell id="0" />
        <mxCell id="1" parent="0" />
        <mxCell id="6NC1EyGUp6P7OQOIqoNv-1" value="&lt;h1 style=&quot;font-size: 16px;&quot;&gt;&lt;font style=&quot;font-size: 16px;&quot;&gt;A Optus é uma empresa no ramo musical que deseja realizar o gerenciamento dos lançamentos de novos cds de seus artistas. Cada álbum lançado poderá conter mais de um estilo vinculado (ex.: Indie e Folk).&lt;/font&gt;&lt;/h1&gt;&lt;h1 style=&quot;font-size: 16px;&quot;&gt;&lt;font style=&quot;font-size: 16px;&quot;&gt;É importante que você crie também uma estratégia para que os usuários possuam acesso à plataforma.&lt;/font&gt;&lt;/h1&gt;&lt;h1 style=&quot;font-size: 16px;&quot;&gt;&lt;font style=&quot;font-size: 16px;&quot;&gt;Os usuários deverão conter nome, email, senha e o tipo de permissão (eles podem ser do tipo administrador ou comum).&lt;/font&gt;&lt;/h1&gt;&lt;h1 style=&quot;font-size: 16px;&quot;&gt;&lt;font style=&quot;font-size: 16px;&quot;&gt;&lt;br&gt;&lt;/font&gt;&lt;/h1&gt;&lt;h1 style=&quot;font-size: 16px;&quot;&gt;&lt;font style=&quot;font-size: 16px;&quot;&gt;Observações:&lt;/font&gt;&lt;/h1&gt;&lt;h1 style=&quot;font-size: 16px;&quot;&gt;&lt;font style=&quot;font-size: 16px;&quot;&gt;Os Artistas deverão possuir somente nome.&lt;/font&gt;&lt;/h1&gt;&lt;h1 style=&quot;font-size: 16px;&quot;&gt;&lt;font style=&quot;font-size: 16px;&quot;&gt;Estilos: nome.&lt;/font&gt;&lt;/h1&gt;&lt;h1 style=&quot;font-size: 16px;&quot;&gt;&lt;font style=&quot;font-size: 16px;&quot;&gt;Albuns: titulo, data de lançamento, localizacao, quantidade de minutos, se o álbum está ativo para visualização, a quem pertence (somente um artista por álbum) e quais os estilos vinculados.&lt;/font&gt;&lt;/h1&gt;&lt;h1 style=&quot;font-size: 16px;&quot;&gt;&lt;font style=&quot;font-size: 16px;&quot;&gt;&lt;br&gt;&lt;/font&gt;&lt;/h1&gt;&lt;h1 style=&quot;font-size: 16px;&quot;&gt;&lt;font style=&quot;font-size: 16px;&quot;&gt;DQL&lt;/font&gt;&lt;/h1&gt;&lt;h1 style=&quot;font-size: 16px;&quot;&gt;&lt;font style=&quot;font-size: 16px;&quot;&gt;&lt;br&gt;&lt;/font&gt;&lt;/h1&gt;&lt;h1 style=&quot;font-size: 16px;&quot;&gt;&lt;font style=&quot;font-size: 16px;&quot;&gt;- listar todos os usuários administradores, sem exibir suas senhas&lt;/font&gt;&lt;/h1&gt;&lt;h1 style=&quot;font-size: 16px;&quot;&gt;&lt;font style=&quot;font-size: 16px;&quot;&gt;- listar todos os álbuns lançados após o um determinado ano de lançamento&lt;/font&gt;&lt;/h1&gt;&lt;h1 style=&quot;font-size: 16px;&quot;&gt;&lt;font style=&quot;font-size: 16px;&quot;&gt;- listar os dados de um usuário através do e-mail e senha&lt;/font&gt;&lt;/h1&gt;&lt;h1 style=&quot;font-size: 16px;&quot;&gt;&lt;font style=&quot;font-size: 16px;&quot;&gt;- listar todos os álbuns ativos, mostrando o nome do artista e os estilos do álbum&amp;nbsp;&lt;/font&gt;&lt;/h1&gt;" style="text;html=1;strokeColor=none;fillColor=none;spacing=5;spacingTop=-20;whiteSpace=wrap;overflow=hidden;rounded=0;" parent="1" vertex="1">
          <mxGeometry x="40" y="40" width="760" height="540" as="geometry" />
        </mxCell>
        <mxCell id="6NC1EyGUp6P7OQOIqoNv-2" value="" style="group" parent="1" vertex="1" connectable="0">
          <mxGeometry x="80" y="1220" width="640" height="720" as="geometry" />
        </mxCell>
        <mxCell id="6NC1EyGUp6P7OQOIqoNv-3" value="Usuário" style="shape=table;startSize=30;container=1;collapsible=1;childLayout=tableLayout;fixedRows=1;rowLines=0;fontStyle=1;align=center;resizeLast=1;html=1;whiteSpace=wrap;" parent="6NC1EyGUp6P7OQOIqoNv-2" vertex="1">
          <mxGeometry width="180" height="200" as="geometry" />
        </mxCell>
        <mxCell id="6NC1EyGUp6P7OQOIqoNv-4" value="" style="shape=tableRow;horizontal=0;startSize=0;swimlaneHead=0;swimlaneBody=0;fillColor=none;collapsible=0;dropTarget=0;points=[[0,0.5],[1,0.5]];portConstraint=eastwest;top=0;left=0;right=0;bottom=0;html=1;" parent="6NC1EyGUp6P7OQOIqoNv-3" vertex="1">
          <mxGeometry y="30" width="180" height="30" as="geometry" />
        </mxCell>
        <mxCell id="6NC1EyGUp6P7OQOIqoNv-5" value="PK" style="shape=partialRectangle;connectable=0;fillColor=none;top=0;left=0;bottom=0;right=0;fontStyle=1;overflow=hidden;html=1;whiteSpace=wrap;" parent="6NC1EyGUp6P7OQOIqoNv-4" vertex="1">
          <mxGeometry width="60" height="30" as="geometry">
            <mxRectangle width="60" height="30" as="alternateBounds" />
          </mxGeometry>
        </mxCell>
        <mxCell id="6NC1EyGUp6P7OQOIqoNv-6" value="ID" style="shape=partialRectangle;connectable=0;fillColor=none;top=0;left=0;bottom=0;right=0;align=left;spacingLeft=6;fontStyle=5;overflow=hidden;html=1;whiteSpace=wrap;" parent="6NC1EyGUp6P7OQOIqoNv-4" vertex="1">
          <mxGeometry x="60" width="120" height="30" as="geometry">
            <mxRectangle width="120" height="30" as="alternateBounds" />
          </mxGeometry>
        </mxCell>
        <mxCell id="6NC1EyGUp6P7OQOIqoNv-7" value="" style="shape=tableRow;horizontal=0;startSize=0;swimlaneHead=0;swimlaneBody=0;fillColor=none;collapsible=0;dropTarget=0;points=[[0,0.5],[1,0.5]];portConstraint=eastwest;top=0;left=0;right=0;bottom=1;html=1;" parent="6NC1EyGUp6P7OQOIqoNv-3" vertex="1">
          <mxGeometry y="60" width="180" height="30" as="geometry" />
        </mxCell>
        <mxCell id="6NC1EyGUp6P7OQOIqoNv-8" value="" style="shape=partialRectangle;connectable=0;fillColor=none;top=0;left=0;bottom=0;right=0;fontStyle=1;overflow=hidden;html=1;whiteSpace=wrap;" parent="6NC1EyGUp6P7OQOIqoNv-7" vertex="1">
          <mxGeometry width="60" height="30" as="geometry">
            <mxRectangle width="60" height="30" as="alternateBounds" />
          </mxGeometry>
        </mxCell>
        <mxCell id="6NC1EyGUp6P7OQOIqoNv-9" value="" style="shape=partialRectangle;connectable=0;fillColor=none;top=0;left=0;bottom=0;right=0;align=left;spacingLeft=6;fontStyle=5;overflow=hidden;html=1;whiteSpace=wrap;" parent="6NC1EyGUp6P7OQOIqoNv-7" vertex="1">
          <mxGeometry x="60" width="120" height="30" as="geometry">
            <mxRectangle width="120" height="30" as="alternateBounds" />
          </mxGeometry>
        </mxCell>
        <mxCell id="6NC1EyGUp6P7OQOIqoNv-10" value="" style="shape=tableRow;horizontal=0;startSize=0;swimlaneHead=0;swimlaneBody=0;fillColor=none;collapsible=0;dropTarget=0;points=[[0,0.5],[1,0.5]];portConstraint=eastwest;top=0;left=0;right=0;bottom=0;html=1;" parent="6NC1EyGUp6P7OQOIqoNv-3" vertex="1">
          <mxGeometry y="90" width="180" height="30" as="geometry" />
        </mxCell>
        <mxCell id="6NC1EyGUp6P7OQOIqoNv-11" value="" style="shape=partialRectangle;connectable=0;fillColor=none;top=0;left=0;bottom=0;right=0;editable=1;overflow=hidden;html=1;whiteSpace=wrap;" parent="6NC1EyGUp6P7OQOIqoNv-10" vertex="1">
          <mxGeometry width="60" height="30" as="geometry">
            <mxRectangle width="60" height="30" as="alternateBounds" />
          </mxGeometry>
        </mxCell>
        <mxCell id="6NC1EyGUp6P7OQOIqoNv-12" value="Nome" style="shape=partialRectangle;connectable=0;fillColor=none;top=0;left=0;bottom=0;right=0;align=left;spacingLeft=6;overflow=hidden;html=1;whiteSpace=wrap;" parent="6NC1EyGUp6P7OQOIqoNv-10" vertex="1">
          <mxGeometry x="60" width="120" height="30" as="geometry">
            <mxRectangle width="120" height="30" as="alternateBounds" />
          </mxGeometry>
        </mxCell>
        <mxCell id="6NC1EyGUp6P7OQOIqoNv-13" value="" style="shape=tableRow;horizontal=0;startSize=0;swimlaneHead=0;swimlaneBody=0;fillColor=none;collapsible=0;dropTarget=0;points=[[0,0.5],[1,0.5]];portConstraint=eastwest;top=0;left=0;right=0;bottom=0;html=1;" parent="6NC1EyGUp6P7OQOIqoNv-3" vertex="1">
          <mxGeometry y="120" width="180" height="80" as="geometry" />
        </mxCell>
        <mxCell id="6NC1EyGUp6P7OQOIqoNv-14" value="" style="shape=partialRectangle;connectable=0;fillColor=none;top=0;left=0;bottom=0;right=0;editable=1;overflow=hidden;html=1;whiteSpace=wrap;" parent="6NC1EyGUp6P7OQOIqoNv-13" vertex="1">
          <mxGeometry width="60" height="80" as="geometry">
            <mxRectangle width="60" height="80" as="alternateBounds" />
          </mxGeometry>
        </mxCell>
        <mxCell id="6NC1EyGUp6P7OQOIqoNv-15" value="Email&lt;br&gt;&lt;br&gt;Senha&lt;br&gt;&lt;br&gt;Permissão" style="shape=partialRectangle;connectable=0;fillColor=none;top=0;left=0;bottom=0;right=0;align=left;spacingLeft=6;overflow=hidden;html=1;whiteSpace=wrap;" parent="6NC1EyGUp6P7OQOIqoNv-13" vertex="1">
          <mxGeometry x="60" width="120" height="80" as="geometry">
            <mxRectangle width="120" height="80" as="alternateBounds" />
          </mxGeometry>
        </mxCell>
        <mxCell id="6NC1EyGUp6P7OQOIqoNv-16" value="Artista" style="shape=table;startSize=30;container=1;collapsible=1;childLayout=tableLayout;fixedRows=1;rowLines=0;fontStyle=1;align=center;resizeLast=1;html=1;whiteSpace=wrap;" parent="6NC1EyGUp6P7OQOIqoNv-2" vertex="1">
          <mxGeometry x="430" width="180" height="150" as="geometry" />
        </mxCell>
        <mxCell id="6NC1EyGUp6P7OQOIqoNv-17" value="" style="shape=tableRow;horizontal=0;startSize=0;swimlaneHead=0;swimlaneBody=0;fillColor=none;collapsible=0;dropTarget=0;points=[[0,0.5],[1,0.5]];portConstraint=eastwest;top=0;left=0;right=0;bottom=0;html=1;" parent="6NC1EyGUp6P7OQOIqoNv-16" vertex="1">
          <mxGeometry y="30" width="180" height="30" as="geometry" />
        </mxCell>
        <mxCell id="6NC1EyGUp6P7OQOIqoNv-18" value="PK" style="shape=partialRectangle;connectable=0;fillColor=none;top=0;left=0;bottom=0;right=0;fontStyle=1;overflow=hidden;html=1;whiteSpace=wrap;" parent="6NC1EyGUp6P7OQOIqoNv-17" vertex="1">
          <mxGeometry width="60" height="30" as="geometry">
            <mxRectangle width="60" height="30" as="alternateBounds" />
          </mxGeometry>
        </mxCell>
        <mxCell id="6NC1EyGUp6P7OQOIqoNv-19" value="ID" style="shape=partialRectangle;connectable=0;fillColor=none;top=0;left=0;bottom=0;right=0;align=left;spacingLeft=6;fontStyle=5;overflow=hidden;html=1;whiteSpace=wrap;" parent="6NC1EyGUp6P7OQOIqoNv-17" vertex="1">
          <mxGeometry x="60" width="120" height="30" as="geometry">
            <mxRectangle width="120" height="30" as="alternateBounds" />
          </mxGeometry>
        </mxCell>
        <mxCell id="6NC1EyGUp6P7OQOIqoNv-20" value="" style="shape=tableRow;horizontal=0;startSize=0;swimlaneHead=0;swimlaneBody=0;fillColor=none;collapsible=0;dropTarget=0;points=[[0,0.5],[1,0.5]];portConstraint=eastwest;top=0;left=0;right=0;bottom=1;html=1;" parent="6NC1EyGUp6P7OQOIqoNv-16" vertex="1">
          <mxGeometry y="60" width="180" height="30" as="geometry" />
        </mxCell>
        <mxCell id="6NC1EyGUp6P7OQOIqoNv-21" value="" style="shape=partialRectangle;connectable=0;fillColor=none;top=0;left=0;bottom=0;right=0;fontStyle=1;overflow=hidden;html=1;whiteSpace=wrap;" parent="6NC1EyGUp6P7OQOIqoNv-20" vertex="1">
          <mxGeometry width="60" height="30" as="geometry">
            <mxRectangle width="60" height="30" as="alternateBounds" />
          </mxGeometry>
        </mxCell>
        <mxCell id="6NC1EyGUp6P7OQOIqoNv-22" value="" style="shape=partialRectangle;connectable=0;fillColor=none;top=0;left=0;bottom=0;right=0;align=left;spacingLeft=6;fontStyle=5;overflow=hidden;html=1;whiteSpace=wrap;" parent="6NC1EyGUp6P7OQOIqoNv-20" vertex="1">
          <mxGeometry x="60" width="120" height="30" as="geometry">
            <mxRectangle width="120" height="30" as="alternateBounds" />
          </mxGeometry>
        </mxCell>
        <mxCell id="6NC1EyGUp6P7OQOIqoNv-23" value="" style="shape=tableRow;horizontal=0;startSize=0;swimlaneHead=0;swimlaneBody=0;fillColor=none;collapsible=0;dropTarget=0;points=[[0,0.5],[1,0.5]];portConstraint=eastwest;top=0;left=0;right=0;bottom=0;html=1;" parent="6NC1EyGUp6P7OQOIqoNv-16" vertex="1">
          <mxGeometry y="90" width="180" height="30" as="geometry" />
        </mxCell>
        <mxCell id="6NC1EyGUp6P7OQOIqoNv-24" value="" style="shape=partialRectangle;connectable=0;fillColor=none;top=0;left=0;bottom=0;right=0;editable=1;overflow=hidden;html=1;whiteSpace=wrap;" parent="6NC1EyGUp6P7OQOIqoNv-23" vertex="1">
          <mxGeometry width="60" height="30" as="geometry">
            <mxRectangle width="60" height="30" as="alternateBounds" />
          </mxGeometry>
        </mxCell>
        <mxCell id="6NC1EyGUp6P7OQOIqoNv-25" value="Nome" style="shape=partialRectangle;connectable=0;fillColor=none;top=0;left=0;bottom=0;right=0;align=left;spacingLeft=6;overflow=hidden;html=1;whiteSpace=wrap;" parent="6NC1EyGUp6P7OQOIqoNv-23" vertex="1">
          <mxGeometry x="60" width="120" height="30" as="geometry">
            <mxRectangle width="120" height="30" as="alternateBounds" />
          </mxGeometry>
        </mxCell>
        <mxCell id="6NC1EyGUp6P7OQOIqoNv-26" value="" style="shape=tableRow;horizontal=0;startSize=0;swimlaneHead=0;swimlaneBody=0;fillColor=none;collapsible=0;dropTarget=0;points=[[0,0.5],[1,0.5]];portConstraint=eastwest;top=0;left=0;right=0;bottom=0;html=1;" parent="6NC1EyGUp6P7OQOIqoNv-16" vertex="1">
          <mxGeometry y="120" width="180" height="30" as="geometry" />
        </mxCell>
        <mxCell id="6NC1EyGUp6P7OQOIqoNv-27" value="" style="shape=partialRectangle;connectable=0;fillColor=none;top=0;left=0;bottom=0;right=0;editable=1;overflow=hidden;html=1;whiteSpace=wrap;" parent="6NC1EyGUp6P7OQOIqoNv-26" vertex="1">
          <mxGeometry width="60" height="30" as="geometry">
            <mxRectangle width="60" height="30" as="alternateBounds" />
          </mxGeometry>
        </mxCell>
        <mxCell id="6NC1EyGUp6P7OQOIqoNv-28" value="" style="shape=partialRectangle;connectable=0;fillColor=none;top=0;left=0;bottom=0;right=0;align=left;spacingLeft=6;overflow=hidden;html=1;whiteSpace=wrap;" parent="6NC1EyGUp6P7OQOIqoNv-26" vertex="1">
          <mxGeometry x="60" width="120" height="30" as="geometry">
            <mxRectangle width="120" height="30" as="alternateBounds" />
          </mxGeometry>
        </mxCell>
        <mxCell id="6NC1EyGUp6P7OQOIqoNv-42" style="edgeStyle=orthogonalEdgeStyle;rounded=0;orthogonalLoop=1;jettySize=auto;html=1;entryX=0.433;entryY=-0.004;entryDx=0;entryDy=0;entryPerimeter=0;" parent="6NC1EyGUp6P7OQOIqoNv-2" source="6NC1EyGUp6P7OQOIqoNv-3" target="6NC1EyGUp6P7OQOIqoNv-29" edge="1">
          <mxGeometry relative="1" as="geometry" />
        </mxCell>
        <mxCell id="6NC1EyGUp6P7OQOIqoNv-43" value="Estilo" style="shape=table;startSize=30;container=1;collapsible=1;childLayout=tableLayout;fixedRows=1;rowLines=0;fontStyle=1;align=center;resizeLast=1;html=1;whiteSpace=wrap;" parent="6NC1EyGUp6P7OQOIqoNv-2" vertex="1">
          <mxGeometry x="430" y="240" width="180" height="150" as="geometry" />
        </mxCell>
        <mxCell id="6NC1EyGUp6P7OQOIqoNv-44" value="" style="shape=tableRow;horizontal=0;startSize=0;swimlaneHead=0;swimlaneBody=0;fillColor=none;collapsible=0;dropTarget=0;points=[[0,0.5],[1,0.5]];portConstraint=eastwest;top=0;left=0;right=0;bottom=0;html=1;" parent="6NC1EyGUp6P7OQOIqoNv-43" vertex="1">
          <mxGeometry y="30" width="180" height="30" as="geometry" />
        </mxCell>
        <mxCell id="6NC1EyGUp6P7OQOIqoNv-45" value="PK" style="shape=partialRectangle;connectable=0;fillColor=none;top=0;left=0;bottom=0;right=0;fontStyle=1;overflow=hidden;html=1;whiteSpace=wrap;" parent="6NC1EyGUp6P7OQOIqoNv-44" vertex="1">
          <mxGeometry width="60" height="30" as="geometry">
            <mxRectangle width="60" height="30" as="alternateBounds" />
          </mxGeometry>
        </mxCell>
        <mxCell id="6NC1EyGUp6P7OQOIqoNv-46" value="ID" style="shape=partialRectangle;connectable=0;fillColor=none;top=0;left=0;bottom=0;right=0;align=left;spacingLeft=6;fontStyle=5;overflow=hidden;html=1;whiteSpace=wrap;" parent="6NC1EyGUp6P7OQOIqoNv-44" vertex="1">
          <mxGeometry x="60" width="120" height="30" as="geometry">
            <mxRectangle width="120" height="30" as="alternateBounds" />
          </mxGeometry>
        </mxCell>
        <mxCell id="6NC1EyGUp6P7OQOIqoNv-47" value="" style="shape=tableRow;horizontal=0;startSize=0;swimlaneHead=0;swimlaneBody=0;fillColor=none;collapsible=0;dropTarget=0;points=[[0,0.5],[1,0.5]];portConstraint=eastwest;top=0;left=0;right=0;bottom=1;html=1;" parent="6NC1EyGUp6P7OQOIqoNv-43" vertex="1">
          <mxGeometry y="60" width="180" height="30" as="geometry" />
        </mxCell>
        <mxCell id="6NC1EyGUp6P7OQOIqoNv-48" value="" style="shape=partialRectangle;connectable=0;fillColor=none;top=0;left=0;bottom=0;right=0;fontStyle=1;overflow=hidden;html=1;whiteSpace=wrap;" parent="6NC1EyGUp6P7OQOIqoNv-47" vertex="1">
          <mxGeometry width="60" height="30" as="geometry">
            <mxRectangle width="60" height="30" as="alternateBounds" />
          </mxGeometry>
        </mxCell>
        <mxCell id="6NC1EyGUp6P7OQOIqoNv-49" value="" style="shape=partialRectangle;connectable=0;fillColor=none;top=0;left=0;bottom=0;right=0;align=left;spacingLeft=6;fontStyle=5;overflow=hidden;html=1;whiteSpace=wrap;" parent="6NC1EyGUp6P7OQOIqoNv-47" vertex="1">
          <mxGeometry x="60" width="120" height="30" as="geometry">
            <mxRectangle width="120" height="30" as="alternateBounds" />
          </mxGeometry>
        </mxCell>
        <mxCell id="6NC1EyGUp6P7OQOIqoNv-50" value="" style="shape=tableRow;horizontal=0;startSize=0;swimlaneHead=0;swimlaneBody=0;fillColor=none;collapsible=0;dropTarget=0;points=[[0,0.5],[1,0.5]];portConstraint=eastwest;top=0;left=0;right=0;bottom=0;html=1;" parent="6NC1EyGUp6P7OQOIqoNv-43" vertex="1">
          <mxGeometry y="90" width="180" height="30" as="geometry" />
        </mxCell>
        <mxCell id="6NC1EyGUp6P7OQOIqoNv-51" value="" style="shape=partialRectangle;connectable=0;fillColor=none;top=0;left=0;bottom=0;right=0;editable=1;overflow=hidden;html=1;whiteSpace=wrap;" parent="6NC1EyGUp6P7OQOIqoNv-50" vertex="1">
          <mxGeometry width="60" height="30" as="geometry">
            <mxRectangle width="60" height="30" as="alternateBounds" />
          </mxGeometry>
        </mxCell>
        <mxCell id="6NC1EyGUp6P7OQOIqoNv-52" value="Nome" style="shape=partialRectangle;connectable=0;fillColor=none;top=0;left=0;bottom=0;right=0;align=left;spacingLeft=6;overflow=hidden;html=1;whiteSpace=wrap;" parent="6NC1EyGUp6P7OQOIqoNv-50" vertex="1">
          <mxGeometry x="60" width="120" height="30" as="geometry">
            <mxRectangle width="120" height="30" as="alternateBounds" />
          </mxGeometry>
        </mxCell>
        <mxCell id="6NC1EyGUp6P7OQOIqoNv-53" value="" style="shape=tableRow;horizontal=0;startSize=0;swimlaneHead=0;swimlaneBody=0;fillColor=none;collapsible=0;dropTarget=0;points=[[0,0.5],[1,0.5]];portConstraint=eastwest;top=0;left=0;right=0;bottom=0;html=1;" parent="6NC1EyGUp6P7OQOIqoNv-43" vertex="1">
          <mxGeometry y="120" width="180" height="30" as="geometry" />
        </mxCell>
        <mxCell id="6NC1EyGUp6P7OQOIqoNv-54" value="" style="shape=partialRectangle;connectable=0;fillColor=none;top=0;left=0;bottom=0;right=0;editable=1;overflow=hidden;html=1;whiteSpace=wrap;" parent="6NC1EyGUp6P7OQOIqoNv-53" vertex="1">
          <mxGeometry width="60" height="30" as="geometry">
            <mxRectangle width="60" height="30" as="alternateBounds" />
          </mxGeometry>
        </mxCell>
        <mxCell id="6NC1EyGUp6P7OQOIqoNv-55" value="" style="shape=partialRectangle;connectable=0;fillColor=none;top=0;left=0;bottom=0;right=0;align=left;spacingLeft=6;overflow=hidden;html=1;whiteSpace=wrap;" parent="6NC1EyGUp6P7OQOIqoNv-53" vertex="1">
          <mxGeometry x="60" width="120" height="30" as="geometry">
            <mxRectangle width="120" height="30" as="alternateBounds" />
          </mxGeometry>
        </mxCell>
        <mxCell id="6NC1EyGUp6P7OQOIqoNv-56" value="AlbumEstilo" style="shape=table;startSize=30;container=1;collapsible=1;childLayout=tableLayout;fixedRows=1;rowLines=0;fontStyle=1;align=center;resizeLast=1;html=1;whiteSpace=wrap;" parent="6NC1EyGUp6P7OQOIqoNv-2" vertex="1">
          <mxGeometry x="430" y="520" width="210" height="170" as="geometry" />
        </mxCell>
        <mxCell id="6NC1EyGUp6P7OQOIqoNv-57" value="" style="shape=tableRow;horizontal=0;startSize=0;swimlaneHead=0;swimlaneBody=0;fillColor=none;collapsible=0;dropTarget=0;points=[[0,0.5],[1,0.5]];portConstraint=eastwest;top=0;left=0;right=0;bottom=0;html=1;" parent="6NC1EyGUp6P7OQOIqoNv-56" vertex="1">
          <mxGeometry y="30" width="210" height="30" as="geometry" />
        </mxCell>
        <mxCell id="6NC1EyGUp6P7OQOIqoNv-58" value="PK, FK" style="shape=partialRectangle;connectable=0;fillColor=none;top=0;left=0;bottom=0;right=0;fontStyle=1;overflow=hidden;html=1;whiteSpace=wrap;" parent="6NC1EyGUp6P7OQOIqoNv-57" vertex="1">
          <mxGeometry width="60" height="30" as="geometry">
            <mxRectangle width="60" height="30" as="alternateBounds" />
          </mxGeometry>
        </mxCell>
        <mxCell id="6NC1EyGUp6P7OQOIqoNv-59" value="Album_ID" style="shape=partialRectangle;connectable=0;fillColor=none;top=0;left=0;bottom=0;right=0;align=left;spacingLeft=6;fontStyle=5;overflow=hidden;html=1;whiteSpace=wrap;" parent="6NC1EyGUp6P7OQOIqoNv-57" vertex="1">
          <mxGeometry x="60" width="150" height="30" as="geometry">
            <mxRectangle width="150" height="30" as="alternateBounds" />
          </mxGeometry>
        </mxCell>
        <mxCell id="6NC1EyGUp6P7OQOIqoNv-60" value="" style="shape=tableRow;horizontal=0;startSize=0;swimlaneHead=0;swimlaneBody=0;fillColor=none;collapsible=0;dropTarget=0;points=[[0,0.5],[1,0.5]];portConstraint=eastwest;top=0;left=0;right=0;bottom=1;html=1;" parent="6NC1EyGUp6P7OQOIqoNv-56" vertex="1">
          <mxGeometry y="60" width="210" height="60" as="geometry" />
        </mxCell>
        <mxCell id="6NC1EyGUp6P7OQOIqoNv-61" value="FK, FK&amp;nbsp;&lt;br&gt;&lt;br&gt;" style="shape=partialRectangle;connectable=0;fillColor=none;top=0;left=0;bottom=0;right=0;fontStyle=1;overflow=hidden;html=1;whiteSpace=wrap;" parent="6NC1EyGUp6P7OQOIqoNv-60" vertex="1">
          <mxGeometry width="60" height="60" as="geometry">
            <mxRectangle width="60" height="60" as="alternateBounds" />
          </mxGeometry>
        </mxCell>
        <mxCell id="6NC1EyGUp6P7OQOIqoNv-62" value="Estilo_ID&lt;br&gt;" style="shape=partialRectangle;connectable=0;fillColor=none;top=0;left=0;bottom=0;right=0;align=left;spacingLeft=6;fontStyle=5;overflow=hidden;html=1;whiteSpace=wrap;" parent="6NC1EyGUp6P7OQOIqoNv-60" vertex="1">
          <mxGeometry x="60" width="150" height="60" as="geometry">
            <mxRectangle width="150" height="60" as="alternateBounds" />
          </mxGeometry>
        </mxCell>
        <mxCell id="6NC1EyGUp6P7OQOIqoNv-63" value="" style="shape=tableRow;horizontal=0;startSize=0;swimlaneHead=0;swimlaneBody=0;fillColor=none;collapsible=0;dropTarget=0;points=[[0,0.5],[1,0.5]];portConstraint=eastwest;top=0;left=0;right=0;bottom=0;html=1;" parent="6NC1EyGUp6P7OQOIqoNv-56" vertex="1">
          <mxGeometry y="120" width="210" height="30" as="geometry" />
        </mxCell>
        <mxCell id="6NC1EyGUp6P7OQOIqoNv-64" value="" style="shape=partialRectangle;connectable=0;fillColor=none;top=0;left=0;bottom=0;right=0;editable=1;overflow=hidden;html=1;whiteSpace=wrap;" parent="6NC1EyGUp6P7OQOIqoNv-63" vertex="1">
          <mxGeometry width="60" height="30" as="geometry">
            <mxRectangle width="60" height="30" as="alternateBounds" />
          </mxGeometry>
        </mxCell>
        <mxCell id="6NC1EyGUp6P7OQOIqoNv-65" value="" style="shape=partialRectangle;connectable=0;fillColor=none;top=0;left=0;bottom=0;right=0;align=left;spacingLeft=6;overflow=hidden;html=1;whiteSpace=wrap;" parent="6NC1EyGUp6P7OQOIqoNv-63" vertex="1">
          <mxGeometry x="60" width="150" height="30" as="geometry">
            <mxRectangle width="150" height="30" as="alternateBounds" />
          </mxGeometry>
        </mxCell>
        <mxCell id="6NC1EyGUp6P7OQOIqoNv-66" value="" style="shape=tableRow;horizontal=0;startSize=0;swimlaneHead=0;swimlaneBody=0;fillColor=none;collapsible=0;dropTarget=0;points=[[0,0.5],[1,0.5]];portConstraint=eastwest;top=0;left=0;right=0;bottom=0;html=1;" parent="6NC1EyGUp6P7OQOIqoNv-56" vertex="1">
          <mxGeometry y="150" width="210" height="20" as="geometry" />
        </mxCell>
        <mxCell id="6NC1EyGUp6P7OQOIqoNv-67" value="" style="shape=partialRectangle;connectable=0;fillColor=none;top=0;left=0;bottom=0;right=0;editable=1;overflow=hidden;html=1;whiteSpace=wrap;" parent="6NC1EyGUp6P7OQOIqoNv-66" vertex="1">
          <mxGeometry width="60" height="20" as="geometry">
            <mxRectangle width="60" height="20" as="alternateBounds" />
          </mxGeometry>
        </mxCell>
        <mxCell id="6NC1EyGUp6P7OQOIqoNv-68" value="" style="shape=partialRectangle;connectable=0;fillColor=none;top=0;left=0;bottom=0;right=0;align=left;spacingLeft=6;overflow=hidden;html=1;whiteSpace=wrap;" parent="6NC1EyGUp6P7OQOIqoNv-66" vertex="1">
          <mxGeometry x="60" width="150" height="20" as="geometry">
            <mxRectangle width="150" height="20" as="alternateBounds" />
          </mxGeometry>
        </mxCell>
        <mxCell id="6NC1EyGUp6P7OQOIqoNv-69" style="edgeStyle=orthogonalEdgeStyle;rounded=0;orthogonalLoop=1;jettySize=auto;html=1;entryX=0.429;entryY=-0.01;entryDx=0;entryDy=0;entryPerimeter=0;" parent="6NC1EyGUp6P7OQOIqoNv-2" source="6NC1EyGUp6P7OQOIqoNv-43" target="6NC1EyGUp6P7OQOIqoNv-56" edge="1">
          <mxGeometry relative="1" as="geometry" />
        </mxCell>
        <mxCell id="6NC1EyGUp6P7OQOIqoNv-70" style="edgeStyle=orthogonalEdgeStyle;rounded=0;orthogonalLoop=1;jettySize=auto;html=1;entryX=-0.011;entryY=0.127;entryDx=0;entryDy=0;entryPerimeter=0;" parent="6NC1EyGUp6P7OQOIqoNv-2" source="6NC1EyGUp6P7OQOIqoNv-33" target="6NC1EyGUp6P7OQOIqoNv-43" edge="1">
          <mxGeometry relative="1" as="geometry">
            <Array as="points">
              <mxPoint x="320" y="440" />
              <mxPoint x="320" y="259" />
            </Array>
          </mxGeometry>
        </mxCell>
        <mxCell id="6NC1EyGUp6P7OQOIqoNv-71" value="N" style="text;html=1;strokeColor=none;fillColor=none;align=center;verticalAlign=middle;whiteSpace=wrap;rounded=0;" parent="6NC1EyGUp6P7OQOIqoNv-2" vertex="1">
          <mxGeometry x="90" y="200" width="60" height="30" as="geometry" />
        </mxCell>
        <mxCell id="6NC1EyGUp6P7OQOIqoNv-72" value="N" style="text;html=1;strokeColor=none;fillColor=none;align=center;verticalAlign=middle;whiteSpace=wrap;rounded=0;" parent="6NC1EyGUp6P7OQOIqoNv-2" vertex="1">
          <mxGeometry x="90" y="370" width="60" height="30" as="geometry" />
        </mxCell>
        <mxCell id="6NC1EyGUp6P7OQOIqoNv-73" value="N" style="text;html=1;strokeColor=none;fillColor=none;align=center;verticalAlign=middle;whiteSpace=wrap;rounded=0;" parent="6NC1EyGUp6P7OQOIqoNv-2" vertex="1">
          <mxGeometry x="360" y="230" width="60" height="30" as="geometry" />
        </mxCell>
        <mxCell id="6NC1EyGUp6P7OQOIqoNv-74" value="1" style="text;html=1;strokeColor=none;fillColor=none;align=center;verticalAlign=middle;whiteSpace=wrap;rounded=0;" parent="6NC1EyGUp6P7OQOIqoNv-2" vertex="1">
          <mxGeometry x="90" y="320" width="60" height="30" as="geometry" />
        </mxCell>
        <mxCell id="6NC1EyGUp6P7OQOIqoNv-75" value="N" style="text;html=1;strokeColor=none;fillColor=none;align=center;verticalAlign=middle;whiteSpace=wrap;rounded=0;" parent="6NC1EyGUp6P7OQOIqoNv-2" vertex="1">
          <mxGeometry x="520" y="390" width="60" height="30" as="geometry" />
        </mxCell>
        <mxCell id="6NC1EyGUp6P7OQOIqoNv-76" value="N" style="text;html=1;strokeColor=none;fillColor=none;align=center;verticalAlign=middle;whiteSpace=wrap;rounded=0;" parent="6NC1EyGUp6P7OQOIqoNv-2" vertex="1">
          <mxGeometry x="520" y="480" width="60" height="30" as="geometry" />
        </mxCell>
        <mxCell id="6NC1EyGUp6P7OQOIqoNv-29" value="Album" style="shape=table;startSize=30;container=1;collapsible=1;childLayout=tableLayout;fixedRows=1;rowLines=0;fontStyle=1;align=center;resizeLast=1;html=1;whiteSpace=wrap;" parent="6NC1EyGUp6P7OQOIqoNv-2" vertex="1">
          <mxGeometry y="360" width="210" height="240" as="geometry" />
        </mxCell>
        <mxCell id="6NC1EyGUp6P7OQOIqoNv-30" value="" style="shape=tableRow;horizontal=0;startSize=0;swimlaneHead=0;swimlaneBody=0;fillColor=none;collapsible=0;dropTarget=0;points=[[0,0.5],[1,0.5]];portConstraint=eastwest;top=0;left=0;right=0;bottom=0;html=1;" parent="6NC1EyGUp6P7OQOIqoNv-29" vertex="1">
          <mxGeometry y="30" width="210" height="30" as="geometry" />
        </mxCell>
        <mxCell id="6NC1EyGUp6P7OQOIqoNv-31" value="PK" style="shape=partialRectangle;connectable=0;fillColor=none;top=0;left=0;bottom=0;right=0;fontStyle=1;overflow=hidden;html=1;whiteSpace=wrap;" parent="6NC1EyGUp6P7OQOIqoNv-30" vertex="1">
          <mxGeometry width="60" height="30" as="geometry">
            <mxRectangle width="60" height="30" as="alternateBounds" />
          </mxGeometry>
        </mxCell>
        <mxCell id="6NC1EyGUp6P7OQOIqoNv-32" value="ID" style="shape=partialRectangle;connectable=0;fillColor=none;top=0;left=0;bottom=0;right=0;align=left;spacingLeft=6;fontStyle=5;overflow=hidden;html=1;whiteSpace=wrap;" parent="6NC1EyGUp6P7OQOIqoNv-30" vertex="1">
          <mxGeometry x="60" width="150" height="30" as="geometry">
            <mxRectangle width="150" height="30" as="alternateBounds" />
          </mxGeometry>
        </mxCell>
        <mxCell id="6NC1EyGUp6P7OQOIqoNv-33" value="" style="shape=tableRow;horizontal=0;startSize=0;swimlaneHead=0;swimlaneBody=0;fillColor=none;collapsible=0;dropTarget=0;points=[[0,0.5],[1,0.5]];portConstraint=eastwest;top=0;left=0;right=0;bottom=1;html=1;" parent="6NC1EyGUp6P7OQOIqoNv-29" vertex="1">
          <mxGeometry y="60" width="210" height="40" as="geometry" />
        </mxCell>
        <mxCell id="6NC1EyGUp6P7OQOIqoNv-34" value="FK1&lt;br&gt;&lt;br&gt;" style="shape=partialRectangle;connectable=0;fillColor=none;top=0;left=0;bottom=0;right=0;fontStyle=1;overflow=hidden;html=1;whiteSpace=wrap;" parent="6NC1EyGUp6P7OQOIqoNv-33" vertex="1">
          <mxGeometry width="60" height="40" as="geometry">
            <mxRectangle width="60" height="40" as="alternateBounds" />
          </mxGeometry>
        </mxCell>
        <mxCell id="6NC1EyGUp6P7OQOIqoNv-35" value="Artista_ID&lt;br&gt;&lt;br&gt;" style="shape=partialRectangle;connectable=0;fillColor=none;top=0;left=0;bottom=0;right=0;align=left;spacingLeft=6;fontStyle=5;overflow=hidden;html=1;whiteSpace=wrap;" parent="6NC1EyGUp6P7OQOIqoNv-33" vertex="1">
          <mxGeometry x="60" width="150" height="40" as="geometry">
            <mxRectangle width="150" height="40" as="alternateBounds" />
          </mxGeometry>
        </mxCell>
        <mxCell id="6NC1EyGUp6P7OQOIqoNv-36" value="" style="shape=tableRow;horizontal=0;startSize=0;swimlaneHead=0;swimlaneBody=0;fillColor=none;collapsible=0;dropTarget=0;points=[[0,0.5],[1,0.5]];portConstraint=eastwest;top=0;left=0;right=0;bottom=0;html=1;" parent="6NC1EyGUp6P7OQOIqoNv-29" vertex="1">
          <mxGeometry y="100" width="210" height="30" as="geometry" />
        </mxCell>
        <mxCell id="6NC1EyGUp6P7OQOIqoNv-37" value="" style="shape=partialRectangle;connectable=0;fillColor=none;top=0;left=0;bottom=0;right=0;editable=1;overflow=hidden;html=1;whiteSpace=wrap;" parent="6NC1EyGUp6P7OQOIqoNv-36" vertex="1">
          <mxGeometry width="60" height="30" as="geometry">
            <mxRectangle width="60" height="30" as="alternateBounds" />
          </mxGeometry>
        </mxCell>
        <mxCell id="6NC1EyGUp6P7OQOIqoNv-38" value="Titulo" style="shape=partialRectangle;connectable=0;fillColor=none;top=0;left=0;bottom=0;right=0;align=left;spacingLeft=6;overflow=hidden;html=1;whiteSpace=wrap;" parent="6NC1EyGUp6P7OQOIqoNv-36" vertex="1">
          <mxGeometry x="60" width="150" height="30" as="geometry">
            <mxRectangle width="150" height="30" as="alternateBounds" />
          </mxGeometry>
        </mxCell>
        <mxCell id="6NC1EyGUp6P7OQOIqoNv-39" value="" style="shape=tableRow;horizontal=0;startSize=0;swimlaneHead=0;swimlaneBody=0;fillColor=none;collapsible=0;dropTarget=0;points=[[0,0.5],[1,0.5]];portConstraint=eastwest;top=0;left=0;right=0;bottom=0;html=1;" parent="6NC1EyGUp6P7OQOIqoNv-29" vertex="1">
          <mxGeometry y="130" width="210" height="110" as="geometry" />
        </mxCell>
        <mxCell id="6NC1EyGUp6P7OQOIqoNv-40" value="" style="shape=partialRectangle;connectable=0;fillColor=none;top=0;left=0;bottom=0;right=0;editable=1;overflow=hidden;html=1;whiteSpace=wrap;" parent="6NC1EyGUp6P7OQOIqoNv-39" vertex="1">
          <mxGeometry width="60" height="110" as="geometry">
            <mxRectangle width="60" height="110" as="alternateBounds" />
          </mxGeometry>
        </mxCell>
        <mxCell id="6NC1EyGUp6P7OQOIqoNv-41" value="Data de Lançamento&lt;br&gt;&lt;br&gt;Localização&lt;br&gt;&lt;br&gt;Minuto&lt;br&gt;&lt;br&gt;Ativo" style="shape=partialRectangle;connectable=0;fillColor=none;top=0;left=0;bottom=0;right=0;align=left;spacingLeft=6;overflow=hidden;html=1;whiteSpace=wrap;" parent="6NC1EyGUp6P7OQOIqoNv-39" vertex="1">
          <mxGeometry x="60" width="150" height="110" as="geometry">
            <mxRectangle width="150" height="110" as="alternateBounds" />
          </mxGeometry>
        </mxCell>
        <mxCell id="6NC1EyGUp6P7OQOIqoNv-153" value="N" style="text;html=1;strokeColor=none;fillColor=none;align=center;verticalAlign=middle;whiteSpace=wrap;rounded=0;" parent="6NC1EyGUp6P7OQOIqoNv-2" vertex="1">
          <mxGeometry x="210" y="410" width="60" height="30" as="geometry" />
        </mxCell>
        <mxCell id="6NC1EyGUp6P7OQOIqoNv-154" value="&lt;h1&gt;&lt;font style=&quot;font-size: 16px;&quot;&gt;Listar todos os usuários administradores, sem exibir suas senhas:&lt;/font&gt;&lt;br&gt;&lt;/h1&gt;&lt;div style=&quot;font-size: 16px;&quot;&gt;&lt;div&gt;&lt;b&gt;SELECT Nome, Email, Permissão&lt;/b&gt;&lt;/div&gt;&lt;div&gt;&lt;b&gt;FROM Usuário&lt;/b&gt;&lt;/div&gt;&lt;div&gt;&lt;b&gt;WHERE Permissão = &#39;administrador&#39;;&lt;/b&gt;&lt;/div&gt;&lt;/div&gt;&lt;div&gt;&lt;br&gt;&lt;/div&gt;&lt;div&gt;&lt;br&gt;&lt;/div&gt;&lt;div&gt;&lt;b&gt;&lt;font style=&quot;font-size: 16px;&quot;&gt;Listar todos os álbuns lançados após um determinado ano de lançamento:&lt;/font&gt;&lt;/b&gt;&lt;br&gt;&lt;/div&gt;&lt;div&gt;&lt;b&gt;&lt;font style=&quot;font-size: 16px;&quot;&gt;&lt;br&gt;&lt;/font&gt;&lt;/b&gt;&lt;/div&gt;&lt;div&gt;&lt;font style=&quot;&quot;&gt;&lt;div style=&quot;&quot;&gt;&lt;b&gt;SELECT Título, DataLançamento&lt;/b&gt;&lt;/div&gt;&lt;div style=&quot;&quot;&gt;&lt;span style=&quot;font-size: 16px;&quot;&gt;&lt;b&gt;FROM Álbum&lt;/b&gt;&lt;/span&gt;&lt;/div&gt;&lt;div style=&quot;&quot;&gt;&lt;span style=&quot;font-size: 16px;&quot;&gt;&lt;b&gt;WHERE DataLançamento &amp;gt; &#39;2022-01-01&#39;;&lt;/b&gt;&lt;/span&gt;&lt;/div&gt;&lt;div style=&quot;font-size: 16px; font-weight: bold;&quot;&gt;&lt;br&gt;&lt;/div&gt;&lt;div style=&quot;font-size: 16px; font-weight: bold;&quot;&gt;&lt;br&gt;&lt;/div&gt;&lt;div style=&quot;font-size: 16px; font-weight: bold;&quot;&gt;Listar os dados de um usuário através do e-mail e senha:&lt;br&gt;&lt;/div&gt;&lt;div style=&quot;font-size: 16px; font-weight: bold;&quot;&gt;&lt;br&gt;&lt;/div&gt;&lt;div style=&quot;font-size: 16px; font-weight: bold;&quot;&gt;&lt;div&gt;SELECT *&lt;/div&gt;&lt;div&gt;FROM Usuário&lt;/div&gt;&lt;div&gt;WHERE Email = &#39;exemplo@email.com&#39; AND Senha = &#39;senha&#39;;&lt;/div&gt;&lt;div&gt;&lt;br&gt;&lt;/div&gt;&lt;/div&gt;&lt;div style=&quot;font-size: 16px; font-weight: bold;&quot;&gt;&lt;br&gt;&lt;/div&gt;&lt;div style=&quot;font-size: 16px; font-weight: bold;&quot;&gt;Listar todos os álbuns ativos, mostrando o nome do artista e os estilos do álbum:&lt;br&gt;&lt;/div&gt;&lt;div style=&quot;font-size: 16px; font-weight: bold;&quot;&gt;&lt;br&gt;&lt;/div&gt;&lt;div style=&quot;font-size: 16px; font-weight: bold;&quot;&gt;&lt;div&gt;SELECT a.Título AS TítuloÁlbum, r.Nome AS NomeArtista, e.Nome AS NomeEstilo&lt;/div&gt;&lt;div&gt;FROM Álbum a&lt;/div&gt;&lt;div&gt;INNER JOIN Artista r ON a.Artista_ID = r.ID&lt;/div&gt;&lt;div&gt;INNER JOIN ÁlbumEstilo ae ON a.ID = ae.Álbum_ID&lt;/div&gt;&lt;div&gt;INNER JOIN Estilo e ON ae.Estilo_ID = e.ID&lt;/div&gt;&lt;div&gt;WHERE a.Ativo = true;&lt;/div&gt;&lt;div&gt;&lt;br&gt;&lt;/div&gt;&lt;/div&gt;&lt;/font&gt;&lt;/div&gt;" style="text;html=1;strokeColor=none;fillColor=none;spacing=5;spacingTop=-20;whiteSpace=wrap;overflow=hidden;rounded=0;" parent="1" vertex="1">
          <mxGeometry x="40" y="1980" width="760" height="580" as="geometry" />
        </mxCell>
        <mxCell id="iwtlez6Rob24M-q-51iH-7" style="edgeStyle=orthogonalEdgeStyle;rounded=0;orthogonalLoop=1;jettySize=auto;html=1;entryX=0;entryY=0.5;entryDx=0;entryDy=0;" edge="1" parent="1" source="iwtlez6Rob24M-q-51iH-1" target="iwtlez6Rob24M-q-51iH-6">
          <mxGeometry relative="1" as="geometry" />
        </mxCell>
        <mxCell id="iwtlez6Rob24M-q-51iH-8" style="edgeStyle=orthogonalEdgeStyle;rounded=0;orthogonalLoop=1;jettySize=auto;html=1;entryX=0;entryY=0.5;entryDx=0;entryDy=0;" edge="1" parent="1" source="iwtlez6Rob24M-q-51iH-1" target="iwtlez6Rob24M-q-51iH-5">
          <mxGeometry relative="1" as="geometry" />
        </mxCell>
        <mxCell id="iwtlez6Rob24M-q-51iH-9" style="edgeStyle=orthogonalEdgeStyle;rounded=0;orthogonalLoop=1;jettySize=auto;html=1;entryX=0;entryY=0.5;entryDx=0;entryDy=0;" edge="1" parent="1" source="iwtlez6Rob24M-q-51iH-1" target="iwtlez6Rob24M-q-51iH-4">
          <mxGeometry relative="1" as="geometry" />
        </mxCell>
        <mxCell id="iwtlez6Rob24M-q-51iH-10" style="edgeStyle=orthogonalEdgeStyle;rounded=0;orthogonalLoop=1;jettySize=auto;html=1;entryX=0;entryY=0.5;entryDx=0;entryDy=0;" edge="1" parent="1" source="iwtlez6Rob24M-q-51iH-1" target="iwtlez6Rob24M-q-51iH-3">
          <mxGeometry relative="1" as="geometry" />
        </mxCell>
        <mxCell id="iwtlez6Rob24M-q-51iH-12" style="edgeStyle=orthogonalEdgeStyle;rounded=0;orthogonalLoop=1;jettySize=auto;html=1;entryX=0.5;entryY=0;entryDx=0;entryDy=0;endArrow=none;endFill=0;" edge="1" parent="1" source="iwtlez6Rob24M-q-51iH-1" target="iwtlez6Rob24M-q-51iH-11">
          <mxGeometry relative="1" as="geometry" />
        </mxCell>
        <mxCell id="iwtlez6Rob24M-q-51iH-1" value="Usuario" style="rounded=1;whiteSpace=wrap;html=1;" vertex="1" parent="1">
          <mxGeometry x="40" y="600" width="120" height="60" as="geometry" />
        </mxCell>
        <mxCell id="iwtlez6Rob24M-q-51iH-2" value="Artista" style="rounded=1;whiteSpace=wrap;html=1;" vertex="1" parent="1">
          <mxGeometry x="600" y="600" width="120" height="60" as="geometry" />
        </mxCell>
        <mxCell id="iwtlez6Rob24M-q-51iH-3" value="Permissão" style="ellipse;whiteSpace=wrap;html=1;" vertex="1" parent="1">
          <mxGeometry x="220" y="780" width="70" height="50" as="geometry" />
        </mxCell>
        <mxCell id="iwtlez6Rob24M-q-51iH-4" value="Senha" style="ellipse;whiteSpace=wrap;html=1;" vertex="1" parent="1">
          <mxGeometry x="220" y="720" width="70" height="50" as="geometry" />
        </mxCell>
        <mxCell id="iwtlez6Rob24M-q-51iH-5" value="Email" style="ellipse;whiteSpace=wrap;html=1;" vertex="1" parent="1">
          <mxGeometry x="220" y="660" width="70" height="50" as="geometry" />
        </mxCell>
        <mxCell id="iwtlez6Rob24M-q-51iH-6" value="Nome" style="ellipse;whiteSpace=wrap;html=1;" vertex="1" parent="1">
          <mxGeometry x="220" y="600" width="70" height="50" as="geometry" />
        </mxCell>
        <mxCell id="iwtlez6Rob24M-q-51iH-19" value="" style="edgeStyle=orthogonalEdgeStyle;rounded=0;orthogonalLoop=1;jettySize=auto;html=1;" edge="1" parent="1" source="iwtlez6Rob24M-q-51iH-11" target="iwtlez6Rob24M-q-51iH-17">
          <mxGeometry relative="1" as="geometry" />
        </mxCell>
        <mxCell id="iwtlez6Rob24M-q-51iH-23" style="edgeStyle=orthogonalEdgeStyle;rounded=0;orthogonalLoop=1;jettySize=auto;html=1;entryX=0;entryY=0.5;entryDx=0;entryDy=0;endArrow=none;endFill=0;" edge="1" parent="1" source="iwtlez6Rob24M-q-51iH-11" target="iwtlez6Rob24M-q-51iH-22">
          <mxGeometry relative="1" as="geometry" />
        </mxCell>
        <mxCell id="iwtlez6Rob24M-q-51iH-11" value="Album" style="rounded=1;whiteSpace=wrap;html=1;" vertex="1" parent="1">
          <mxGeometry x="40" y="850" width="120" height="60" as="geometry" />
        </mxCell>
        <mxCell id="iwtlez6Rob24M-q-51iH-13" value="Possui" style="rhombus;whiteSpace=wrap;html=1;" vertex="1" parent="1">
          <mxGeometry x="60" y="720" width="80" height="80" as="geometry" />
        </mxCell>
        <mxCell id="iwtlez6Rob24M-q-51iH-20" value="" style="edgeStyle=orthogonalEdgeStyle;rounded=0;orthogonalLoop=1;jettySize=auto;html=1;" edge="1" parent="1" source="iwtlez6Rob24M-q-51iH-14" target="iwtlez6Rob24M-q-51iH-18">
          <mxGeometry relative="1" as="geometry" />
        </mxCell>
        <mxCell id="iwtlez6Rob24M-q-51iH-14" value="Nome" style="ellipse;whiteSpace=wrap;html=1;" vertex="1" parent="1">
          <mxGeometry x="65" y="1000" width="70" height="50" as="geometry" />
        </mxCell>
        <mxCell id="iwtlez6Rob24M-q-51iH-15" value="Nome" style="ellipse;whiteSpace=wrap;html=1;" vertex="1" parent="1">
          <mxGeometry x="65" y="1070" width="70" height="50" as="geometry" />
        </mxCell>
        <mxCell id="iwtlez6Rob24M-q-51iH-25" style="edgeStyle=orthogonalEdgeStyle;rounded=0;orthogonalLoop=1;jettySize=auto;html=1;endArrow=none;endFill=0;" edge="1" parent="1" source="iwtlez6Rob24M-q-51iH-16">
          <mxGeometry relative="1" as="geometry">
            <mxPoint x="100" y="1055" as="targetPoint" />
          </mxGeometry>
        </mxCell>
        <mxCell id="iwtlez6Rob24M-q-51iH-16" value="Nome" style="ellipse;whiteSpace=wrap;html=1;" vertex="1" parent="1">
          <mxGeometry x="160" y="1030" width="70" height="50" as="geometry" />
        </mxCell>
        <mxCell id="iwtlez6Rob24M-q-51iH-17" value="Nome" style="ellipse;whiteSpace=wrap;html=1;" vertex="1" parent="1">
          <mxGeometry x="65" y="940" width="70" height="50" as="geometry" />
        </mxCell>
        <mxCell id="iwtlez6Rob24M-q-51iH-18" value="Nome" style="ellipse;whiteSpace=wrap;html=1;" vertex="1" parent="1">
          <mxGeometry x="65" y="1130" width="70" height="50" as="geometry" />
        </mxCell>
        <mxCell id="iwtlez6Rob24M-q-51iH-27" value="" style="edgeStyle=orthogonalEdgeStyle;rounded=0;orthogonalLoop=1;jettySize=auto;html=1;" edge="1" parent="1" source="iwtlez6Rob24M-q-51iH-22" target="iwtlez6Rob24M-q-51iH-26">
          <mxGeometry relative="1" as="geometry" />
        </mxCell>
        <mxCell id="iwtlez6Rob24M-q-51iH-33" style="edgeStyle=orthogonalEdgeStyle;rounded=0;orthogonalLoop=1;jettySize=auto;html=1;entryX=0;entryY=0.5;entryDx=0;entryDy=0;endArrow=none;endFill=0;" edge="1" parent="1" source="iwtlez6Rob24M-q-51iH-22" target="iwtlez6Rob24M-q-51iH-32">
          <mxGeometry relative="1" as="geometry" />
        </mxCell>
        <mxCell id="iwtlez6Rob24M-q-51iH-22" value="Estilo" style="rounded=1;whiteSpace=wrap;html=1;" vertex="1" parent="1">
          <mxGeometry x="390" y="850" width="120" height="60" as="geometry" />
        </mxCell>
        <mxCell id="iwtlez6Rob24M-q-51iH-24" value="Possui" style="rhombus;whiteSpace=wrap;html=1;" vertex="1" parent="1">
          <mxGeometry x="230" y="840" width="80" height="80" as="geometry" />
        </mxCell>
        <mxCell id="iwtlez6Rob24M-q-51iH-26" value="Nome" style="ellipse;whiteSpace=wrap;html=1;" vertex="1" parent="1">
          <mxGeometry x="414" y="950" width="70" height="50" as="geometry" />
        </mxCell>
        <mxCell id="iwtlez6Rob24M-q-51iH-28" value="N" style="text;html=1;strokeColor=none;fillColor=none;align=center;verticalAlign=middle;whiteSpace=wrap;rounded=0;" vertex="1" parent="1">
          <mxGeometry x="100" y="660" width="60" height="30" as="geometry" />
        </mxCell>
        <mxCell id="iwtlez6Rob24M-q-51iH-29" value="1" style="text;html=1;strokeColor=none;fillColor=none;align=center;verticalAlign=middle;whiteSpace=wrap;rounded=0;" vertex="1" parent="1">
          <mxGeometry x="100" y="820" width="60" height="30" as="geometry" />
        </mxCell>
        <mxCell id="iwtlez6Rob24M-q-51iH-30" value="N" style="text;html=1;strokeColor=none;fillColor=none;align=center;verticalAlign=middle;whiteSpace=wrap;rounded=0;" vertex="1" parent="1">
          <mxGeometry x="160" y="850" width="60" height="30" as="geometry" />
        </mxCell>
        <mxCell id="iwtlez6Rob24M-q-51iH-31" value="N" style="text;html=1;strokeColor=none;fillColor=none;align=center;verticalAlign=middle;whiteSpace=wrap;rounded=0;" vertex="1" parent="1">
          <mxGeometry x="330" y="850" width="60" height="30" as="geometry" />
        </mxCell>
        <mxCell id="iwtlez6Rob24M-q-51iH-32" value="Album Estilo" style="rounded=1;whiteSpace=wrap;html=1;" vertex="1" parent="1">
          <mxGeometry x="680" y="850" width="120" height="60" as="geometry" />
        </mxCell>
        <mxCell id="iwtlez6Rob24M-q-51iH-34" value="Possui" style="rhombus;whiteSpace=wrap;html=1;" vertex="1" parent="1">
          <mxGeometry x="550" y="840" width="80" height="80" as="geometry" />
        </mxCell>
        <mxCell id="iwtlez6Rob24M-q-51iH-35" value="N" style="text;html=1;strokeColor=none;fillColor=none;align=center;verticalAlign=middle;whiteSpace=wrap;rounded=0;" vertex="1" parent="1">
          <mxGeometry x="500" y="850" width="60" height="30" as="geometry" />
        </mxCell>
        <mxCell id="iwtlez6Rob24M-q-51iH-36" value="N" style="text;html=1;strokeColor=none;fillColor=none;align=center;verticalAlign=middle;whiteSpace=wrap;rounded=0;" vertex="1" parent="1">
          <mxGeometry x="620" y="850" width="60" height="30" as="geometry" />
        </mxCell>
      </root>
    </mxGraphModel>
  </diagram>
</mxfile>
